<?xml version="1.0" encoding="UTF-8" ?>
<svg version="1.1" width="32" height="32" xmlns="http://www.w3.org/2000/svg" shape-rendering="crispEdges">
<rect x="0" y="0" width="3" height="1" fill="#000000" />
<rect x="15" y="0" width="2" height="1" fill="#000000" />
<rect x="29" y="0" width="3" height="1" fill="#000000" />
<rect x="0" y="1" width="1" height="10" fill="#000000" />
<rect x="1" y="1" width="1" height="10" fill="#FBF236" />
<rect x="2" y="1" width="1" height="1" fill="#000000" />
<rect x="14" y="1" width="1" height="2" fill="#000000" />
<rect x="15" y="1" width="2" height="11" fill="#FBF236" />
<rect x="17" y="1" width="1" height="2" fill="#000000" />
<rect x="29" y="1" width="1" height="1" fill="#000000" />
<rect x="30" y="1" width="1" height="10" fill="#FBF236" />
<rect x="31" y="1" width="1" height="10" fill="#000000" />
<rect x="2" y="2" width="1" height="10" fill="#FBF236" />
<rect x="3" y="2" width="1" height="1" fill="#000000" />
<rect x="13" y="2" width="1" height="1" fill="#000000" />
<rect x="18" y="2" width="1" height="1" fill="#000000" />
<rect x="28" y="2" width="1" height="1" fill="#000000" />
<rect x="29" y="2" width="1" height="10" fill="#FBF236" />
<rect x="3" y="3" width="1" height="5" fill="#FBF236" />
<rect x="4" y="3" width="1" height="1" fill="#000000" />
<rect x="7" y="3" width="6" height="1" fill="#000000" />
<rect x="13" y="3" width="2" height="5" fill="#FBF236" />
<rect x="17" y="3" width="2" height="5" fill="#FBF236" />
<rect x="19" y="3" width="6" height="1" fill="#000000" />
<rect x="27" y="3" width="1" height="1" fill="#000000" />
<rect x="28" y="3" width="1" height="5" fill="#FBF236" />
<rect x="4" y="4" width="1" height="2" fill="#FBF236" />
<rect x="5" y="4" width="3" height="1" fill="#000000" />
<rect x="8" y="4" width="3" height="6" fill="#EAE0E0" />
<rect x="11" y="4" width="1" height="3" fill="#000000" />
<rect x="12" y="4" width="1" height="3" fill="#FBF236" />
<rect x="19" y="4" width="1" height="3" fill="#FBF236" />
<rect x="20" y="4" width="1" height="3" fill="#000000" />
<rect x="21" y="4" width="3" height="6" fill="#EAE0E0" />
<rect x="24" y="4" width="3" height="1" fill="#000000" />
<rect x="27" y="4" width="1" height="2" fill="#FBF236" />
<rect x="5" y="5" width="1" height="2" fill="#000000" />
<rect x="6" y="5" width="2" height="5" fill="#EAE0E0" />
<rect x="24" y="5" width="2" height="5" fill="#EAE0E0" />
<rect x="26" y="5" width="1" height="2" fill="#000000" />
<rect x="4" y="6" width="1" height="3" fill="#000000" />
<rect x="27" y="6" width="1" height="3" fill="#000000" />
<rect x="5" y="7" width="1" height="4" fill="#EAE0E0" />
<rect x="11" y="7" width="1" height="3" fill="#EAE0E0" />
<rect x="12" y="7" width="1" height="1" fill="#000000" />
<rect x="19" y="7" width="1" height="1" fill="#000000" />
<rect x="20" y="7" width="1" height="3" fill="#EAE0E0" />
<rect x="26" y="7" width="1" height="4" fill="#EAE0E0" />
<rect x="3" y="8" width="1" height="4" fill="#000000" />
<rect x="12" y="8" width="1" height="2" fill="#EAE0E0" />
<rect x="13" y="8" width="1" height="1" fill="#000000" />
<rect x="14" y="8" width="1" height="1" fill="#FBF236" />
<rect x="17" y="8" width="1" height="1" fill="#FBF236" />
<rect x="18" y="8" width="1" height="1" fill="#000000" />
<rect x="19" y="8" width="1" height="2" fill="#EAE0E0" />
<rect x="28" y="8" width="1" height="4" fill="#000000" />
<rect x="4" y="9" width="1" height="2" fill="#EAE0E0" />
<rect x="13" y="9" width="1" height="1" fill="#EAE0E0" />
<rect x="14" y="9" width="1" height="5" fill="#000000" />
<rect x="17" y="9" width="1" height="5" fill="#000000" />
<rect x="18" y="9" width="1" height="1" fill="#EAE0E0" />
<rect x="27" y="9" width="1" height="2" fill="#EAE0E0" />
<rect x="6" y="10" width="8" height="1" fill="#000000" />
<rect x="18" y="10" width="8" height="1" fill="#000000" />
<rect x="1" y="11" width="1" height="1" fill="#000000" />
<rect x="4" y="11" width="3" height="1" fill="#000000" />
<rect x="13" y="11" width="1" height="1" fill="#000000" />
<rect x="18" y="11" width="1" height="1" fill="#000000" />
<rect x="25" y="11" width="3" height="1" fill="#000000" />
<rect x="30" y="11" width="1" height="1" fill="#000000" />
<rect x="2" y="12" width="1" height="1" fill="#000000" />
<rect x="3" y="12" width="1" height="1" fill="#FBF236" />
<rect x="4" y="12" width="1" height="1" fill="#000000" />
<rect x="15" y="12" width="2" height="1" fill="#000000" />
<rect x="27" y="12" width="1" height="1" fill="#000000" />
<rect x="28" y="12" width="1" height="1" fill="#FBF236" />
<rect x="29" y="12" width="1" height="1" fill="#000000" />
<rect x="3" y="13" width="1" height="1" fill="#000000" />
<rect x="4" y="13" width="1" height="1" fill="#FBF236" />
<rect x="5" y="13" width="1" height="2" fill="#000000" />
<rect x="13" y="13" width="1" height="11" fill="#000000" />
<rect x="15" y="13" width="2" height="16" fill="#EAE0E0" />
<rect x="18" y="13" width="1" height="11" fill="#000000" />
<rect x="26" y="13" width="1" height="2" fill="#000000" />
<rect x="27" y="13" width="1" height="1" fill="#FBF236" />
<rect x="28" y="13" width="1" height="1" fill="#000000" />
<rect x="4" y="14" width="1" height="1" fill="#000000" />
<rect x="14" y="14" width="1" height="9" fill="#EAE0E0" />
<rect x="17" y="14" width="1" height="9" fill="#EAE0E0" />
<rect x="27" y="14" width="1" height="1" fill="#000000" />
<rect x="1" y="17" width="2" height="1" fill="#000000" />
<rect x="29" y="17" width="2" height="1" fill="#000000" />
<rect x="0" y="18" width="1" height="7" fill="#000000" />
<rect x="1" y="18" width="1" height="7" fill="#FBF236" />
<rect x="2" y="18" width="1" height="2" fill="#000000" />
<rect x="29" y="18" width="1" height="2" fill="#000000" />
<rect x="30" y="18" width="1" height="7" fill="#FBF236" />
<rect x="31" y="18" width="1" height="7" fill="#000000" />
<rect x="2" y="20" width="1" height="10" fill="#FBF236" />
<rect x="3" y="20" width="1" height="2" fill="#000000" />
<rect x="28" y="20" width="1" height="2" fill="#000000" />
<rect x="29" y="20" width="1" height="10" fill="#FBF236" />
<rect x="3" y="22" width="1" height="9" fill="#FBF236" />
<rect x="4" y="22" width="3" height="1" fill="#000000" />
<rect x="9" y="22" width="1" height="1" fill="#000000" />
<rect x="22" y="22" width="1" height="1" fill="#000000" />
<rect x="25" y="22" width="3" height="1" fill="#000000" />
<rect x="28" y="22" width="1" height="9" fill="#FBF236" />
<rect x="4" y="23" width="2" height="5" fill="#FBF236" />
<rect x="6" y="23" width="3" height="1" fill="#000000" />
<rect x="9" y="23" width="1" height="8" fill="#FBF236" />
<rect x="10" y="23" width="1" height="2" fill="#000000" />
<rect x="14" y="23" width="1" height="3" fill="#000000" />
<rect x="17" y="23" width="1" height="3" fill="#000000" />
<rect x="21" y="23" width="1" height="2" fill="#000000" />
<rect x="22" y="23" width="1" height="8" fill="#FBF236" />
<rect x="23" y="23" width="3" height="1" fill="#000000" />
<rect x="26" y="23" width="2" height="5" fill="#FBF236" />
<rect x="6" y="24" width="1" height="1" fill="#000000" />
<rect x="7" y="24" width="1" height="1" fill="#EAE0E0" />
<rect x="8" y="24" width="1" height="1" fill="#000000" />
<rect x="11" y="24" width="1" height="3" fill="#000000" />
<rect x="20" y="24" width="1" height="3" fill="#000000" />
<rect x="23" y="24" width="1" height="1" fill="#000000" />
<rect x="24" y="24" width="1" height="1" fill="#EAE0E0" />
<rect x="25" y="24" width="1" height="1" fill="#000000" />
<rect x="1" y="25" width="1" height="5" fill="#000000" />
<rect x="6" y="25" width="1" height="1" fill="#FBF236" />
<rect x="7" y="25" width="1" height="6" fill="#000000" />
<rect x="8" y="25" width="1" height="5" fill="#FBF236" />
<rect x="10" y="25" width="1" height="6" fill="#FBF236" />
<rect x="12" y="25" width="2" height="1" fill="#000000" />
<rect x="18" y="25" width="2" height="1" fill="#000000" />
<rect x="21" y="25" width="1" height="6" fill="#FBF236" />
<rect x="23" y="25" width="1" height="5" fill="#FBF236" />
<rect x="24" y="25" width="1" height="6" fill="#000000" />
<rect x="25" y="25" width="1" height="1" fill="#FBF236" />
<rect x="30" y="25" width="1" height="5" fill="#000000" />
<rect x="6" y="26" width="1" height="3" fill="#000000" />
<rect x="12" y="26" width="3" height="1" fill="#EAE0E0" />
<rect x="17" y="26" width="3" height="1" fill="#EAE0E0" />
<rect x="25" y="26" width="1" height="3" fill="#000000" />
<rect x="11" y="27" width="1" height="1" fill="#FBF236" />
<rect x="12" y="27" width="1" height="1" fill="#000000" />
<rect x="13" y="27" width="2" height="2" fill="#EAE0E0" />
<rect x="17" y="27" width="2" height="2" fill="#EAE0E0" />
<rect x="19" y="27" width="1" height="1" fill="#000000" />
<rect x="20" y="27" width="1" height="1" fill="#FBF236" />
<rect x="4" y="28" width="1" height="3" fill="#FBF236" />
<rect x="5" y="28" width="1" height="3" fill="#000000" />
<rect x="11" y="28" width="1" height="4" fill="#000000" />
<rect x="12" y="28" width="1" height="1" fill="#EAE0E0" />
<rect x="19" y="28" width="1" height="1" fill="#EAE0E0" />
<rect x="20" y="28" width="1" height="4" fill="#000000" />
<rect x="26" y="28" width="1" height="3" fill="#000000" />
<rect x="27" y="28" width="1" height="3" fill="#FBF236" />
<rect x="12" y="29" width="8" height="1" fill="#000000" />
<rect x="2" y="30" width="1" height="2" fill="#000000" />
<rect x="8" y="30" width="1" height="2" fill="#000000" />
<rect x="23" y="30" width="1" height="2" fill="#000000" />
<rect x="29" y="30" width="1" height="2" fill="#000000" />
<rect x="3" y="31" width="2" height="1" fill="#000000" />
<rect x="9" y="31" width="2" height="1" fill="#000000" />
<rect x="21" y="31" width="2" height="1" fill="#000000" />
<rect x="27" y="31" width="2" height="1" fill="#000000" />
</svg>